<?xml version="1.0" encoding="utf-8"?>
<!-- Generator: Adobe Illustrator 25.4.1, SVG Export Plug-In . SVG Version: 6.00 Build 0)  -->
<svg version="1.1" id="Layer_1" xmlns="http://www.w3.org/2000/svg" xmlns:xlink="http://www.w3.org/1999/xlink" x="0px" y="0px"
	 viewBox="0 0 60 60" style="enable-background:new 0 0 60 60;" xml:space="preserve">
<style type="text/css">
	.st0{fill:#00D639;}
</style>
<g id="surface1">
	<path class="st0" d="M52,60H16c-1.1,0-2-0.9-2-2s0.9-2,2-2h36c2.2,0,4-1.8,4-4V8c0-2.2-1.8-4-4-4H8C5.8,4,4,5.8,4,8v44
		c0,2.2,1.8,4,4,4c1.1,0,2,0.9,2,2s-0.9,2-2,2c-4.4,0-8-3.6-8-8V8c0-4.4,3.6-8,8-8h44c4.4,0,8,3.6,8,8v44C60,56.4,56.4,60,52,60z
		 M30,50c-1.4,0-2.8-0.1-4.2-0.4c-1.4-0.3-2.7-0.7-4-1.3c-1.3-0.6-2.5-1.3-3.6-2.1c-1.1-0.8-2.2-1.8-3.1-2.8c-0.9-1-1.8-2.2-2.5-3.4
		c-0.7-1.2-1.3-2.5-1.7-3.8c-0.4-1.3-0.7-2.7-0.9-4.1C10,31.4,10,30.7,10,30c0,0,0,0,0,0s0,0,0,0c0-0.7,0-1.4,0.1-2.1
		c0.1-1.4,0.4-2.8,0.9-4.1c0.4-1.3,1-2.6,1.7-3.8c0.7-1.2,1.5-2.3,2.5-3.4c0.9-1,2-2,3.1-2.8c1.1-0.8,2.3-1.5,3.6-2.1
		c1.3-0.6,2.6-1,4-1.3c1.4-0.3,2.8-0.4,4.2-0.4s2.8,0.1,4.2,0.4c1.4,0.3,2.7,0.7,4,1.3c1.3,0.6,2.5,1.3,3.6,2.1
		c1.1,0.8,2.2,1.8,3.1,2.8c0.9,1,1.8,2.2,2.5,3.4s1.3,2.5,1.7,3.8c0.4,1.3,0.7,2.7,0.9,4.1c0.1,1.4,0.1,2.8,0,4.2
		c-0.1,1.4-0.4,2.8-0.9,4.1c-0.4,1.3-1,2.6-1.7,3.8s-1.5,2.3-2.5,3.4c-0.7,0.8-2,0.9-2.8,0.1c-0.8-0.7-0.9-2-0.1-2.8
		c0.7-0.8,1.4-1.7,2-2.7c0.6-1,1-2,1.4-3.1c0.3-0.9,0.5-1.9,0.7-2.9H38C37.6,41,35.1,50,30,50z M30,46c1,0,3.6-4.8,4-14H26
		C26.4,41.2,29,46,30,46z M14.1,32c0.1,1,0.3,2,0.7,2.9c0.3,1.1,0.8,2.1,1.4,3.1c0.6,1,1.2,1.9,2,2.7c0.7,0.8,1.6,1.6,2.5,2.2
		c0.9,0.7,1.9,1.2,2.9,1.7c0.3,0.1,0.7,0.3,1,0.4c-1.5-3.4-2.3-8.2-2.4-13H14.1z M38,28h7.9c-0.1-1-0.3-2-0.7-2.9
		C44.9,24,44.4,23,43.9,22c-0.6-1-1.2-1.9-2-2.7c-0.7-0.8-1.6-1.6-2.5-2.2c-0.9-0.7-1.9-1.2-2.9-1.7c-0.3-0.1-0.7-0.3-1-0.4
		C37,18.4,37.8,23.2,38,28z M26,28H34c-0.3-9.2-3-14-4-14S26.4,18.8,26,28z M14.1,28H22c0.2-4.8,1-9.6,2.4-13
		c-0.3,0.1-0.7,0.3-1,0.4c-1,0.5-2,1-2.9,1.7c-0.9,0.7-1.7,1.4-2.5,2.2c-0.8,0.8-1.4,1.7-2,2.7c-0.6,1-1,2-1.4,3.1
		C14.5,26,14.2,27,14.1,28z"/>
</g>
</svg>
