<?xml version="1.0" encoding="utf-8"?>
<!-- Generator: Adobe Illustrator 25.4.1, SVG Export Plug-In . SVG Version: 6.00 Build 0)  -->
<svg version="1.1" id="Layer_1" xmlns="http://www.w3.org/2000/svg" xmlns:xlink="http://www.w3.org/1999/xlink" x="0px" y="0px"
	 viewBox="0 0 90 90" style="enable-background:new 0 0 90 90;" xml:space="preserve">
<g id="surface1">
	<path d="M78,90H42c-5,0-9-4-9-9V57.4c0-2.4-1-4.7-2.7-6.4c-4.1-3.9-6.4-9.4-6.3-15c0-6.7,3.2-12.9,8.5-16.9
		c1.8-1.3,4.2-1.5,6.1-0.5c2,1,3.3,3.1,3.3,5.4v12h9c1.7,0,3,1.3,3,3s-1.3,3-3,3h-9c-3.3,0-6-2.7-6-6V24c-3.5,2.6-5.7,6.6-6,11
		s1.4,8.6,4.5,11.7c2.9,2.8,4.5,6.6,4.5,10.7V81c0,1.7,1.3,3,3,3h36c3.3,0,6-2.7,6-6V12c0-3.3-2.7-6-6-6H12c-3.3,0-6,2.7-6,6v66
		c0,3.3,2.7,6,6,6h15c1.7,0,3,1.3,3,3s-1.3,3-3,3H12C5.4,90,0,84.6,0,78V12C0,5.4,5.4,0,12,0h66c6.6,0,12,5.4,12,12v66
		C90,84.6,84.6,90,78,90z M54,78c-0.8,0-1.6-0.3-2.1-0.9S51,75.8,51,75V57.4c0-4,1.6-7.8,4.5-10.7c3.1-3.1,4.8-7.4,4.5-11.7
		c-0.3-4.4-2.5-8.4-6.1-11L54,30c0,1.7-1.3,3-3,3s-3-1.3-3-3v-6c0-2.3,1.3-4.4,3.3-5.4c2-1,4.3-0.8,6.1,0.5c5.4,4,8.5,10.2,8.5,16.9
		c0,5.7-2.3,11.1-6.3,15C58,52.7,57,55,57,57.4V75c0,0.8-0.3,1.6-0.9,2.1S54.8,78,54,78z M48,48c0-1.7-1.3-3-3-3s-3,1.3-3,3
		s1.3,3,3,3S48,49.7,48,48z"/>
</g>
</svg>
