<?xml version="1.0" encoding="utf-8"?>
<!-- Generator: Adobe Illustrator 25.4.1, SVG Export Plug-In . SVG Version: 6.00 Build 0)  -->
<svg version="1.1" id="Layer_1" xmlns="http://www.w3.org/2000/svg" xmlns:xlink="http://www.w3.org/1999/xlink" x="0px" y="0px"
	 viewBox="0 0 90 90" style="enable-background:new 0 0 90 90;" xml:space="preserve">
<g id="surface1">
	<path d="M78,90H51c-1.7,0-3-1.3-3-3s1.3-3,3-3h27c3.3,0,6-2.7,6-6V12c0-3.3-2.7-6-6-6H12c-3.3,0-6,2.7-6,6v66c0,3.3,2.7,6,6,6h27
		c1.7,0,3,1.3,3,3s-1.3,3-3,3H12C5.4,90,0,84.6,0,78V12C0,5.4,5.4,0,12,0h66c6.6,0,12,5.4,12,12v66C90,84.6,84.6,90,78,90z M69,78
		c-1.7,0-3-1.3-3-3c0-2.3-0.4-4.5-1.1-6.6c-0.4-1.3,0.1-2.8,1.3-3.5l4.6-2.8l-2.7-4l-4.4,2.7c-1.2,0.7-2.7,0.5-3.7-0.5
		c-2.7-2.7-6-4.7-9.7-5.6c-1.3-0.3-2.2-1.5-2.2-2.9V48h-6v3.8c0,1.4-0.9,2.6-2.2,2.9c-3.7,0.9-7.1,2.9-9.7,5.6c-1,1-2.5,1.2-3.7,0.5
		l-4.4-2.7l-2.7,4l4.6,2.8c1.2,0.7,1.7,2.2,1.3,3.5C24.4,70.5,24,72.7,24,75c0,1.7-1.3,3-3,3s-3-1.3-3-3c0-2.1,0.2-4.2,0.7-6.2
		l-5.3-3.2c-0.7-0.4-1.2-1.1-1.4-1.9c-0.2-0.8,0-1.6,0.4-2.3l6-9c0.9-1.3,2.7-1.7,4.1-0.9l4.9,3c2.5-2.1,5.4-3.8,8.5-4.9V45
		c0-1.7,1.3-3,3-3h12c1.7,0,3,1.3,3,3v4.6c3.1,1.1,6,2.8,8.5,4.9l4.9-3c1.4-0.8,3.2-0.4,4.1,0.9l6,9c0.5,0.7,0.6,1.5,0.4,2.3
		c-0.2,0.8-0.7,1.5-1.4,1.9l-5.3,3.2c0.5,2,0.7,4.1,0.7,6.2C72,76.7,70.7,78,69,78z M57,78c-1.7,0-3-1.3-3-3c0-5-4-9-9-9s-9,4-9,9
		c0,1.7-1.3,3-3,3s-3-1.3-3-3c0-8.3,6.7-15,15-15s15,6.7,15,15C60,76.7,58.7,78,57,78z M57,39c-1,0-2-0.5-2.6-1.4l-3.2-5.3
		c-4.1,1-8.3,1-12.4,0l-3.2,5.3c-0.4,0.7-1.1,1.2-1.9,1.4c-0.8,0.2-1.6,0-2.3-0.4l-9-6c-1.3-0.9-1.7-2.7-0.9-4.1l3-4.9
		c-1.8-2.2-3.3-4.6-4.4-7.2c-0.6-1.5,0.1-3.3,1.6-3.9c1.5-0.6,3.3,0.1,3.9,1.6c1.1,2.6,2.7,5,4.7,7c1,1,1.2,2.5,0.5,3.7l-2.7,4.4
		l4,2.7l2.8-4.6c0.7-1.2,2.2-1.7,3.5-1.3c4.3,1.4,9,1.4,13.3,0c1.3-0.4,2.8,0.1,3.5,1.3l2.8,4.6l4-2.7l-2.7-4.4
		c-0.7-1.2-0.5-2.7,0.5-3.7c2.1-2,3.7-4.4,4.7-7.1c0.4-1,1.3-1.7,2.4-1.9c1.1-0.2,2.1,0.3,2.8,1.1c0.7,0.8,0.8,2,0.4,3
		c-1.1,2.7-2.6,5.2-4.5,7.4l3,4.9c0.8,1.4,0.4,3.2-0.9,4.1l-9,6C58.2,38.8,57.6,39,57,39z M45,21c-3.6,0-7.1-1.3-9.9-3.8
		c-1.2-1.1-1.3-3-0.2-4.2c1.1-1.2,3-1.3,4.2-0.2c3.4,2.9,8.4,2.9,11.7,0c1.2-1.1,3.1-1,4.2,0.2c1.1,1.2,1,3.1-0.2,4.2
		C52.1,19.7,48.6,21,45,21z"/>
</g>
</svg>
