<?xml version="1.0" encoding="utf-8"?>
<!-- Generator: Adobe Illustrator 25.4.1, SVG Export Plug-In . SVG Version: 6.00 Build 0)  -->
<svg version="1.1" id="Layer_1" xmlns="http://www.w3.org/2000/svg" xmlns:xlink="http://www.w3.org/1999/xlink" x="0px" y="0px"
	 viewBox="0 0 90 90" style="enable-background:new 0 0 90 90;" xml:space="preserve">
<g id="surface1">
	<path d="M78,90H24c-1.7,0-3-1.3-3-3s1.3-3,3-3h54c3.3,0,6-2.7,6-6V12c0-3.3-2.7-6-6-6H12c-3.3,0-6,2.7-6,6v66c0,3.3,2.7,6,6,6
		c1.7,0,3,1.3,3,3s-1.3,3-3,3C5.4,90,0,84.6,0,78V12C0,5.4,5.4,0,12,0h66c6.6,0,12,5.4,12,12v66C90,84.6,84.6,90,78,90z M36,76.3h-9
		c-0.8,0-1.6-0.3-2.1-0.9S24,74.1,24,73.3v-9.5c0-1.7,1.3-3,3-3s3,1.3,3,3v6.5h3V57.6c0-0.2,0-0.4,0-0.6h-9c-3.2,0-6.3-1.3-8.6-3.6
		c-2.3-2.3-3.5-5.4-3.4-8.6v-3c0.2-6.7,5.8-12,12.5-11.9H33c1.7,0,3,1.3,3,3s-1.3,3-3,3h-8.5c-3.4-0.2-6.3,2.5-6.5,5.9v3
		c0,1.6,0.6,3.2,1.7,4.4c1.1,1.2,2.7,1.8,4.3,1.8h18c8.1,0,16.1,4.8,21,8.5V27.8c-5.1,4.3-11.4,7.1-18,8.1V45c0,1.7-1.3,3-3,3
		s-3-1.3-3-3V33c0-1.7,1.3-3,3-3c10.8,0,19.1-8.4,21.9-11.1c0.9-0.9,2.1-1.1,3.3-0.6c1.1,0.5,1.9,1.6,1.9,2.8v11.6
		c5.2,0.9,9,5.4,9,10.7c0,5.3-3.8,9.8-9,10.7V66c0,1.2-0.7,2.3-1.9,2.8c-1.1,0.5-2.4,0.2-3.3-0.6C63.8,68,52.6,57,42,57h-3
		c0,0.2,0,0.4,0,0.6v15.8c0,0.8-0.3,1.6-0.9,2.1S36.8,76.3,36,76.3z M69,38.8v9c1.8-0.8,3-2.5,3-4.5C72,41.4,70.8,39.6,69,38.8z"/>
</g>
</svg>
