<?xml version="1.0" encoding="utf-8"?>
<!-- Generator: Adobe Illustrator 25.4.1, SVG Export Plug-In . SVG Version: 6.00 Build 0)  -->
<svg version="1.1" id="Layer_1" xmlns="http://www.w3.org/2000/svg" xmlns:xlink="http://www.w3.org/1999/xlink" x="0px" y="0px"
	 viewBox="0 0 90 90" style="enable-background:new 0 0 90 90;" xml:space="preserve">
<style type="text/css">
	.st0{fill:#00D639;}
</style>
<g id="surface1">
	<path class="st0" d="M78,90H24c-1.6,0-3-1.4-3-3s1.4-3,3-3h54c3.3,0,6-2.7,6-6V12c0-3.3-2.7-6-6-6H12c-3.3,0-6,2.7-6,6v66
		c0,3.3,2.7,6,6,6c1.6,0,3,1.4,3,3s-1.4,3-3,3C5.4,90,0,84.6,0,78V12C0,5.4,5.4,0,12,0h66c6.6,0,12,5.4,12,12v66
		C90,84.6,84.6,90,78,90z M45,75c-2.1,0-4.2-0.2-6.2-0.7c-2-0.4-4.1-1.1-6-1.9c-1.9-0.8-3.7-1.9-5.4-3.2c-1.7-1.2-3.3-2.6-4.6-4.2
		c-1.4-1.5-2.6-3.2-3.7-5s-1.9-3.8-2.6-5.7c-0.7-2-1.1-4.1-1.3-6.1c-0.1-1-0.2-2-0.2-3.1c0,0,0,0,0-0.1s0,0,0-0.1
		c0-1,0.1-2.1,0.2-3.1c0.2-2.1,0.7-4.1,1.3-6.1c0.6-2,1.5-3.9,2.6-5.7s2.3-3.5,3.7-5.1s3-3,4.6-4.2s3.5-2.3,5.4-3.2
		c1.9-0.8,3.9-1.5,6-1.9c2-0.4,4.1-0.6,6.2-0.6s4.2,0.2,6.2,0.7c2,0.4,4.1,1.1,6,1.9c1.9,0.8,3.8,1.9,5.4,3.2
		c1.7,1.2,3.3,2.6,4.6,4.2c1.4,1.5,2.6,3.2,3.7,5s1.9,3.8,2.6,5.7c0.6,2,1.1,4.1,1.3,6.1c0.2,2.1,0.2,4.2,0,6.3
		c-0.2,2.1-0.7,4.1-1.3,6.1c-0.7,2-1.5,3.9-2.6,5.7s-2.3,3.5-3.7,5.1c-1.1,1.2-3,1.3-4.2,0.2s-1.3-3-0.2-4.2
		c1.1-1.3,2.1-2.6,2.9-4.1c0.8-1.4,1.5-3,2-4.6c0.5-1.4,0.8-2.9,1-4.4H56.9C56.5,61.5,52.7,75,45,75z M45,69c1.4,0,5.4-7.2,5.9-21
		H39.1C39.6,61.8,43.6,69,45,69z M21.2,48c0.2,1.5,0.5,3,1,4.4c0.5,1.6,1.2,3.1,2,4.6s1.8,2.8,2.9,4.1c1.1,1.2,2.4,2.4,3.7,3.4
		c1.3,1,2.8,1.8,4.3,2.5c0.5,0.2,1,0.4,1.5,0.6c-2.2-5.1-3.4-12.3-3.7-19.5H21.2z M56.9,42h11.9c-0.2-1.5-0.5-3-1-4.4
		c-0.5-1.6-1.2-3.1-2-4.6c-0.8-1.4-1.8-2.8-2.9-4.1c-1.1-1.2-2.4-2.4-3.7-3.4c-1.3-1-2.8-1.8-4.3-2.5c-0.5-0.2-1-0.4-1.5-0.6
		C55.5,27.6,56.7,34.8,56.9,42z M39.1,42h11.9c-0.5-13.8-4.5-21-5.9-21S39.6,28.2,39.1,42z M21.2,42h11.9c0.3-7.2,1.4-14.4,3.7-19.5
		c-0.5,0.2-1,0.4-1.5,0.6c-1.5,0.7-3,1.5-4.3,2.5c-1.4,1-2.6,2.1-3.7,3.4c-1.1,1.2-2.1,2.6-3,4.1s-1.5,3-2,4.6
		C21.7,39,21.4,40.5,21.2,42z"/>
</g>
</svg>
