<?xml version="1.0" encoding="utf-8"?>
<!-- Generator: Adobe Illustrator 25.4.1, SVG Export Plug-In . SVG Version: 6.00 Build 0)  -->
<svg version="1.1" id="Layer_1" xmlns="http://www.w3.org/2000/svg" xmlns:xlink="http://www.w3.org/1999/xlink" x="0px" y="0px"
	 viewBox="0 0 90 90" style="enable-background:new 0 0 90 90;" xml:space="preserve">
<g id="surface1">
	<path d="M78,90H24c-1.7,0-3-1.3-3-3s1.3-3,3-3h54c3.3,0,6-2.7,6-6V12c0-3.3-2.7-6-6-6H12c-3.3,0-6,2.7-6,6v66.1
		c0,3.3,2.7,5.9,6,5.9c1.7,0,3,1.3,3,3s-1.3,3-3,3C5.4,90,0,84.7,0,78.1V12C0,5.4,5.4,0,12,0h66c6.6,0,12,5.4,12,12v66
		C90,84.6,84.6,90,78,90z M45,69c-0.3,0-0.6,0-0.9-0.1l-30-8.9c-1.6-0.5-2.5-2.1-2-3.7c0.5-1.6,2.1-2.5,3.7-2L45,62.9l29.1-8.7
		c1-0.3,2.1,0,2.9,0.7c0.8,0.7,1.1,1.8,0.9,2.9c-0.3,1-1,1.9-2.1,2.2l-30,8.9C45.6,69,45.3,69,45,69z M45,57.1c-0.3,0-0.6,0-0.9-0.1
		l-30-9.1c-1-0.3-1.8-1.1-2.1-2.2c-0.2-1,0.1-2.1,0.9-2.9c0.8-0.7,1.9-1,2.9-0.7L45,50.9l29.1-8.8c1.6-0.5,3.3,0.4,3.7,2
		s-0.4,3.3-2,3.7l-30,9.1C45.6,57,45.3,57.1,45,57.1z M45,45.1c-0.3,0-0.6,0-0.9-0.1l-30-9.1c-0.1,0-0.2-0.1-0.3-0.1
		c-0.8-0.3-1.4-0.9-1.7-1.7c-0.3-0.7-0.3-1.6,0.1-2.3c0.3-0.7,0.9-1.3,1.7-1.6c0.1,0,0.2-0.1,0.2-0.1l30-9.1c0.6-0.2,1.2-0.2,1.7,0
		l30,9.1c0.1,0,0.2,0.1,0.3,0.1c1.2,0.4,1.9,1.6,1.9,2.8c0,1.2-0.8,2.4-1.9,2.8c-0.1,0-0.2,0.1-0.2,0.1l-30,9.1
		C45.6,45,45.3,45.1,45,45.1z M25.4,33L45,38.9L64.6,33L45,27.1L25.4,33z"/>
</g>
</svg>
