<?xml version="1.0" encoding="UTF-8" standalone="no"?>
<!-- Created with Inkscape (http://www.inkscape.org/) -->

<svg
   version="1.1"
   id="svg355"
   xml:space="preserve"
   width="210mm"
   height="297mm"
   viewBox="0 0 793.70074 1122.5197"
   sodipodi:docname="DotsDashes_horiz_RGB.svg"
   inkscape:version="1.1.2 (b8e25be833, 2022-02-05)"
   xmlns:inkscape="http://www.inkscape.org/namespaces/inkscape"
   xmlns:sodipodi="http://sodipodi.sourceforge.net/DTD/sodipodi-0.dtd"
   xmlns="http://www.w3.org/2000/svg"
   xmlns:svg="http://www.w3.org/2000/svg"><defs
     id="defs359"><clipPath
       clipPathUnits="userSpaceOnUse"
       id="clipPath423"><path
         d="M 0,1638.138 H 2911.254 V 0 H 0 Z"
         id="path421" /></clipPath><clipPath
       clipPathUnits="userSpaceOnUse"
       id="clipPath451"><path
         d="M 0,1638.138 H 2911.254 V 0 H 0 Z"
         id="path449" /></clipPath><linearGradient
       x1="0"
       y1="0"
       x2="1"
       y2="0"
       gradientUnits="userSpaceOnUse"
       gradientTransform="matrix(-54.651646,0,0,54.651646,1247.4298,321.60773)"
       spreadMethod="pad"
       id="linearGradient559"><stop
         style="stop-opacity:1;stop-color:#102810"
         offset="0"
         id="stop553" /><stop
         style="stop-opacity:1;stop-color:#137a32"
         offset="0.5"
         id="stop555" /><stop
         style="stop-opacity:1;stop-color:#00d639"
         offset="1"
         id="stop557" /></linearGradient><clipPath
       clipPathUnits="userSpaceOnUse"
       id="clipPath569"><path
         d="M 0,1638.138 H 2911.254 V 0 H 0 Z"
         id="path567" /></clipPath></defs><sodipodi:namedview
     id="namedview357"
     pagecolor="#ffffff"
     bordercolor="#666666"
     borderopacity="1.0"
     inkscape:pageshadow="2"
     inkscape:pageopacity="0.0"
     inkscape:pagecheckerboard="0"
     showgrid="false"
     units="mm"
     inkscape:zoom="0.41533794"
     inkscape:cx="-788.51453"
     inkscape:cy="548.95058"
     inkscape:window-width="2560"
     inkscape:window-height="1377"
     inkscape:window-x="-8"
     inkscape:window-y="-8"
     inkscape:window-maximized="1"
     inkscape:current-layer="g361"
     inkscape:document-units="mm" /><g
     id="g361"
     inkscape:groupmode="layer"
     inkscape:label="DotsDashes_horiz_RGB"
     transform="matrix(1.3333333,0,0,-1.3333333,0,2184.1867)"><path
       d="m 0,1212.9432 h 756.59593 v 425.1969 H 0 Z"
       style="fill:#000000;fill-opacity:1;fill-rule:nonzero;stroke:none;stroke-width:0.259947"
       id="path363" /><g
       id="g365"
       transform="matrix(0.25994697,0,0,0.25994697,638.42209,1552.2617)"><path
         d="M 0,0 H 197.986 Z"
         style="fill:#000000;fill-opacity:1;fill-rule:nonzero;stroke:none"
         id="path367" /></g><g
       id="g369"
       transform="matrix(0.25994697,0,0,0.25994697,638.42214,1552.2617)"><path
         d="M 0,0 H 197.986"
         style="fill:none;stroke:#00d639;stroke-width:54.652;stroke-linecap:round;stroke-linejoin:miter;stroke-miterlimit:10;stroke-dasharray:none;stroke-opacity:1"
         id="path371" /></g><g
       id="g373"
       transform="matrix(0.25994697,0,0,0.25994697,585.16444,1381.7833)"><path
         d="M 0,0 H 328.541 Z"
         style="fill:#000000;fill-opacity:1;fill-rule:nonzero;stroke:none"
         id="path375" /></g><g
       id="g377"
       transform="matrix(0.25994697,0,0,0.25994697,585.16454,1381.7835)"><path
         d="M 0,0 H 328.541"
         style="fill:none;stroke:#00d639;stroke-width:54.652;stroke-linecap:round;stroke-linejoin:miter;stroke-miterlimit:10;stroke-dasharray:none;stroke-opacity:1"
         id="path379" /></g><g
       id="g381"
       transform="matrix(0.25994697,0,0,0.25994697,444.5893,1467.0227)"><path
         d="M 0,0 H 191.776 Z"
         style="fill:#000000;fill-opacity:1;fill-rule:nonzero;stroke:none"
         id="path383" /></g><g
       id="g385"
       transform="matrix(0.25994697,0,0,0.25994697,444.58938,1467.0226)"><path
         d="M 0,0 H 191.776"
         style="fill:none;stroke:#00d639;stroke-width:54.652;stroke-linecap:round;stroke-linejoin:miter;stroke-miterlimit:10;stroke-dasharray:none;stroke-opacity:1"
         id="path387" /></g><g
       id="g389"
       transform="matrix(0.25994697,0,0,0.25994697,527.04136,1424.4029)"><path
         d="M 0,0 H 191.776 Z"
         style="fill:#000000;fill-opacity:1;fill-rule:nonzero;stroke:none"
         id="path391" /></g><g
       id="g393"
       transform="matrix(0.25994697,0,0,0.25994697,527.04131,1424.403)"><path
         d="M 0,0 H 191.776"
         style="fill:none;stroke:#00d639;stroke-width:54.652;stroke-linecap:round;stroke-linejoin:miter;stroke-miterlimit:10;stroke-dasharray:none;stroke-opacity:1"
         id="path395" /></g><g
       id="g397"
       transform="matrix(0.25994697,0,0,0.25994697,535.63817,1594.8813)"><path
         d="M 0,0 H 658.731 Z"
         style="fill:#000000;fill-opacity:1;fill-rule:nonzero;stroke:none"
         id="path399" /></g><g
       id="g401"
       transform="matrix(0.25994697,0,0,0.25994697,535.63826,1594.8814)"><path
         d="M 0,0 H 658.73"
         style="fill:none;stroke:#00d639;stroke-width:54.652;stroke-linecap:round;stroke-linejoin:miter;stroke-miterlimit:10;stroke-dasharray:none;stroke-opacity:1"
         id="path403" /></g><g
       id="g405"
       transform="matrix(0.25994697,0,0,0.25994697,320.92916,1594.8813)"><path
         d="M 0,0 H 326.847 Z"
         style="fill:#000000;fill-opacity:1;fill-rule:nonzero;stroke:none"
         id="path407" /></g><g
       id="g409"
       transform="matrix(0.25994697,0,0,0.25994697,320.92916,1594.8814)"><path
         d="M 0,0 H 326.847"
         style="fill:none;stroke:#00d639;stroke-width:54.652;stroke-linecap:round;stroke-linejoin:miter;stroke-miterlimit:10;stroke-dasharray:none;stroke-opacity:1"
         id="path411" /></g><g
       id="g413"
       transform="matrix(0.25994697,0,0,0.25994697,0,1594.8813)"><path
         d="M 0,0 H 315.669 Z"
         style="fill:#000000;fill-opacity:1;fill-rule:nonzero;stroke:none"
         id="path415" /></g><g
       id="g417"
       transform="matrix(0.25994697,0,0,0.25994697,0,1212.9432)"><g
         id="g419"
         clip-path="url(#clipPath423)"><g
           id="g425"
           transform="translate(-11.1784,1469.2924)"><path
             d="M 0,0 H 326.847"
             style="fill:none;stroke:#00d639;stroke-width:54.652;stroke-linecap:round;stroke-linejoin:miter;stroke-miterlimit:10;stroke-dasharray:none;stroke-opacity:1"
             id="path427" /></g></g></g><g
       id="g429"
       transform="matrix(0.25994697,0,0,0.25994697,296.24955,1552.2617)"><path
         d="M 0,0 H 819.243 Z"
         style="fill:#000000;fill-opacity:1;fill-rule:nonzero;stroke:none"
         id="path431" /></g><g
       id="g433"
       transform="matrix(0.25994697,0,0,0.25994697,509.20937,1552.2617)"><path
         d="M 0,0 H -819.243"
         style="fill:none;stroke:#00d639;stroke-width:54.652;stroke-linecap:round;stroke-linejoin:miter;stroke-miterlimit:10;stroke-dasharray:none;stroke-opacity:1"
         id="path435" /></g><g
       id="g437"
       transform="matrix(0.25994697,0,0,0.25994697,210.20214,1594.8813)"><path
         d="M 0,0 H 102.603 Z"
         style="fill:#000000;fill-opacity:1;fill-rule:nonzero;stroke:none"
         id="path439" /></g><g
       id="g441"
       transform="matrix(0.25994697,0,0,0.25994697,210.20211,1594.8814)"><path
         d="M 0,0 H 102.603"
         style="fill:none;stroke:#00d639;stroke-width:54.652;stroke-linecap:round;stroke-linejoin:miter;stroke-miterlimit:10;stroke-dasharray:none;stroke-opacity:1"
         id="path443" /></g><g
       id="g445"
       transform="matrix(0.25994697,0,0,0.25994697,0,1212.9432)"><g
         id="g447"
         clip-path="url(#clipPath451)"><g
           id="g453"
           transform="translate(975.699,1332.6632)"><path
             d="m 0,0 c -15.091,0 -27.326,-12.234 -27.326,-27.326 0,-15.091 12.235,-27.326 27.326,-27.326 15.091,0 27.326,12.235 27.326,27.326 C 27.326,-12.234 15.091,0 0,0"
             style="fill:#00d639;fill-opacity:1;fill-rule:nonzero;stroke:none"
             id="path455" /></g><g
           id="g457"
           transform="translate(2123.3835,1332.6632)"><path
             d="m 0,0 c -15.091,0 -27.326,-12.234 -27.326,-27.326 0,-15.091 12.235,-27.326 27.326,-27.326 15.091,0 27.326,12.235 27.326,27.326 C 27.326,-12.234 15.091,0 0,0"
             style="fill:#00d639;fill-opacity:1;fill-rule:nonzero;stroke:none"
             id="path459" /></g><g
           id="g461"
           transform="translate(2287.3386,1332.6632)"><path
             d="m 0,0 c -15.092,0 -27.326,-12.234 -27.326,-27.326 0,-15.091 12.234,-27.326 27.326,-27.326 15.091,0 27.326,12.235 27.326,27.326 C 27.326,-12.234 15.091,0 0,0"
             style="fill:#00d639;fill-opacity:1;fill-rule:nonzero;stroke:none"
             id="path463" /></g><g
           id="g465"
           transform="translate(2857.1816,1496.6182)"><path
             d="m 0,0 c -15.091,0 -27.326,-12.234 -27.326,-27.326 0,-15.091 12.235,-27.326 27.326,-27.326 15.091,0 27.326,12.235 27.326,27.326 C 27.326,-12.234 15.091,0 0,0"
             style="fill:#00d639;fill-opacity:1;fill-rule:nonzero;stroke:none"
             id="path467" /></g><g
           id="g469"
           transform="translate(1158.6897,676.8434)"><path
             d="m 0,0 c -15.091,0 -27.326,-12.234 -27.326,-27.326 0,-15.091 12.235,-27.326 27.326,-27.326 15.091,0 27.326,12.235 27.326,27.326 C 27.326,-12.234 15.091,0 0,0"
             style="fill:#00d639;fill-opacity:1;fill-rule:nonzero;stroke:none"
             id="path471" /></g><g
           id="g473"
           transform="translate(1493.1854,512.8885)"><path
             d="m 0,0 c -15.091,0 -27.326,-12.234 -27.326,-27.326 0,-15.091 12.235,-27.326 27.326,-27.326 15.091,0 27.326,12.235 27.326,27.326 C 27.326,-12.234 15.091,0 0,0"
             style="fill:#00d639;fill-opacity:1;fill-rule:nonzero;stroke:none"
             id="path475" /></g><g
           id="g477"
           transform="translate(1753.7854,512.8885)"><path
             d="m 0,0 c -15.091,0 -27.326,-12.234 -27.326,-27.326 0,-15.091 12.235,-27.326 27.326,-27.326 15.091,0 27.326,12.235 27.326,27.326 C 27.326,-12.234 15.091,0 0,0"
             style="fill:#00d639;fill-opacity:1;fill-rule:nonzero;stroke:none"
             id="path479" /></g><g
           id="g481"
           transform="translate(2415.6775,676.8434)"><path
             d="m 0,0 c -15.091,0 -27.326,-12.234 -27.326,-27.326 0,-15.091 12.235,-27.326 27.326,-27.326 15.091,0 27.326,12.235 27.326,27.326 C 27.326,-12.234 15.091,0 0,0"
             style="fill:#00d639;fill-opacity:1;fill-rule:nonzero;stroke:none"
             id="path483" /></g><g
           id="g485"
           transform="translate(797.3816,184.9786)"><path
             d="m 0,0 c -15.091,0 -27.326,-12.234 -27.326,-27.326 0,-15.091 12.235,-27.326 27.326,-27.326 15.091,0 27.326,12.235 27.326,27.326 C 27.326,-12.234 15.091,0 0,0"
             style="fill:#00d639;fill-opacity:1;fill-rule:nonzero;stroke:none"
             id="path487" /></g><g
           id="g489"
           transform="translate(1890.4146,184.9786)"><path
             d="m 0,0 c -15.091,0 -27.326,-12.234 -27.326,-27.326 0,-15.091 12.235,-27.326 27.326,-27.326 15.091,0 27.326,12.235 27.326,27.326 C 27.326,-12.234 15.091,0 0,0"
             style="fill:#00d639;fill-opacity:1;fill-rule:nonzero;stroke:none"
             id="path491" /></g><g
           id="g493"
           transform="translate(797.3816,840.7983)"><path
             d="m 0,0 c -15.091,0 -27.326,-12.234 -27.326,-27.326 0,-15.091 12.235,-27.326 27.326,-27.326 15.091,0 27.326,12.235 27.326,27.326 C 27.326,-12.234 15.091,0 0,0"
             style="fill:#00d639;fill-opacity:1;fill-rule:nonzero;stroke:none"
             id="path495" /></g><g
           id="g497"
           transform="translate(1890.4146,840.7983)"><path
             d="m 0,0 c -15.091,0 -27.326,-12.234 -27.326,-27.326 0,-15.091 12.235,-27.326 27.326,-27.326 15.091,0 27.326,12.235 27.326,27.326 C 27.326,-12.234 15.091,0 0,0"
             style="fill:#00d639;fill-opacity:1;fill-rule:nonzero;stroke:none"
             id="path499" /></g><g
           id="g501"
           transform="translate(2910.5786,840.7983)"><path
             d="m 0,0 c -15.091,0 -27.326,-12.234 -27.326,-27.326 0,-15.091 12.235,-27.326 27.326,-27.326 15.091,0 27.326,12.235 27.326,27.326 C 27.326,-12.234 15.091,0 0,0"
             style="fill:#00d639;fill-opacity:1;fill-rule:nonzero;stroke:none"
             id="path503" /></g><g
           id="g505"
           transform="translate(2819.1279,1332.6632)"><path
             d="m 0,0 c -15.091,0 -27.326,-12.234 -27.326,-27.326 0,-15.091 12.235,-27.326 27.326,-27.326 15.091,0 27.326,12.235 27.326,27.326 C 27.326,-12.234 15.091,0 0,0"
             style="fill:#00d639;fill-opacity:1;fill-rule:nonzero;stroke:none"
             id="path507" /></g><g
           id="g509"
           transform="translate(496.7975,1469.2924)"><path
             d="m 0,0 c 0,-15.092 -12.234,-27.326 -27.326,-27.326 -15.091,0 -27.326,12.234 -27.326,27.326 0,15.092 12.235,27.326 27.326,27.326 C -12.234,27.326 0,15.092 0,0"
             style="fill:#00d639;fill-opacity:1;fill-rule:nonzero;stroke:none"
             id="path511" /></g><g
           id="g513"
           transform="translate(660.7525,1469.2924)"><path
             d="m 0,0 c 0,-15.092 -12.234,-27.326 -27.326,-27.326 -15.091,0 -27.326,12.234 -27.326,27.326 0,15.092 12.235,27.326 27.326,27.326 C -12.234,27.326 0,15.092 0,0"
             style="fill:#00d639;fill-opacity:1;fill-rule:nonzero;stroke:none"
             id="path515" /></g><g
           id="g517"
           transform="translate(1097.9657,1469.2924)"><path
             d="m 0,0 c 0,-15.092 -12.234,-27.326 -27.326,-27.326 -15.091,0 -27.326,12.234 -27.326,27.326 0,15.092 12.235,27.326 27.326,27.326 C -12.234,27.326 0,15.092 0,0"
             style="fill:#00d639;fill-opacity:1;fill-rule:nonzero;stroke:none"
             id="path519" /></g><g
           id="g521"
           transform="translate(1753.7854,1469.2924)"><path
             d="m 0,0 c 0,-15.092 -12.234,-27.326 -27.326,-27.326 -15.091,0 -27.326,12.234 -27.326,27.326 0,15.092 12.235,27.326 27.326,27.326 C -12.234,27.326 0,15.092 0,0"
             style="fill:#00d639;fill-opacity:1;fill-rule:nonzero;stroke:none"
             id="path523" /></g><g
           id="g525"
           transform="translate(1917.7404,1469.2924)"><path
             d="m 0,0 c 0,-15.092 -12.234,-27.326 -27.326,-27.326 -15.091,0 -27.326,12.234 -27.326,27.326 0,15.092 12.235,27.326 27.326,27.326 C -12.234,27.326 0,15.092 0,0"
             style="fill:#00d639;fill-opacity:1;fill-rule:nonzero;stroke:none"
             id="path527" /></g><g
           id="g529"
           transform="translate(263.7002,321.6077)"><path
             d="m 0,0 c 0,-15.092 -12.234,-27.326 -27.326,-27.326 -15.091,0 -27.326,12.234 -27.326,27.326 0,15.092 12.235,27.326 27.326,27.326 C -12.234,27.326 0,15.092 0,0"
             style="fill:#00d639;fill-opacity:1;fill-rule:nonzero;stroke:none"
             id="path531" /></g><g
           id="g533"
           transform="translate(919.52,321.6077)"><path
             d="m 0,0 c 0,-15.092 -12.234,-27.326 -27.326,-27.326 -15.091,0 -27.326,12.234 -27.326,27.326 0,15.092 12.235,27.326 27.326,27.326 C -12.234,27.326 0,15.092 0,0"
             style="fill:#00d639;fill-opacity:1;fill-rule:nonzero;stroke:none"
             id="path535" /></g><g
           id="g537"
           transform="translate(1083.4749,321.6077)"><path
             d="m 0,0 c 0,-15.092 -12.234,-27.326 -27.326,-27.326 -15.091,0 -27.326,12.234 -27.326,27.326 0,15.092 12.235,27.326 27.326,27.326 C -12.234,27.326 0,15.092 0,0"
             style="fill:#00d639;fill-opacity:1;fill-rule:nonzero;stroke:none"
             id="path539" /></g></g></g><g
       id="g541"
       transform="matrix(0.25994697,0,0,0.25994697,0,1212.9432)"><g
         id="g543"><g
           id="g549"><g
             id="g551"><path
               d="m 1192.778,321.608 c 0,-15.092 12.235,-27.326 27.326,-27.326 v 0 c 15.092,0 27.326,12.234 27.326,27.326 v 0 c 0,15.091 -12.234,27.326 -27.326,27.326 v 0 c -15.091,0 -27.326,-12.235 -27.326,-27.326"
               style="fill:url(#linearGradient559);stroke:none"
               id="path561" /></g></g></g></g><g
       id="g563"
       transform="matrix(0.25994697,0,0,0.25994697,0,1212.9432)"><g
         id="g565"
         clip-path="url(#clipPath569)"><g
           id="g571"
           transform="translate(1830.4042,1141.3824)"><path
             d="M 0,0 H -874.333"
             style="fill:#000000;fill-opacity:1;fill-rule:nonzero;stroke:#00d639;stroke-width:54.652;stroke-linecap:round;stroke-linejoin:miter;stroke-miterlimit:10;stroke-dasharray:none;stroke-opacity:1"
             id="path573" /></g><g
           id="g575"
           transform="translate(23.1499,1305.3374)"><path
             d="M 0,0 H 790.255"
             style="fill:#000000;fill-opacity:1;fill-rule:nonzero;stroke:#00d639;stroke-width:54.652;stroke-linecap:round;stroke-linejoin:miter;stroke-miterlimit:10;stroke-dasharray:none;stroke-opacity:1"
             id="path577" /></g><g
           id="g579"
           transform="translate(2709.5447,1141.3824)"><path
             d="M 0,0 H -601.168"
             style="fill:#000000;fill-opacity:1;fill-rule:nonzero;stroke:#00d639;stroke-width:54.652;stroke-linecap:round;stroke-linejoin:miter;stroke-miterlimit:10;stroke-dasharray:none;stroke-opacity:1"
             id="path581" /></g><g
           id="g583"
           transform="translate(960.8516,813.4725)"><path
             d="M 0,0 H 765.608"
             style="fill:#000000;fill-opacity:1;fill-rule:nonzero;stroke:#00d639;stroke-width:54.652;stroke-linecap:round;stroke-linejoin:miter;stroke-miterlimit:10;stroke-dasharray:none;stroke-opacity:1"
             id="path585" /></g><g
           id="g587"
           transform="translate(1380.6899,977.4275)"><path
             d="M 0,0 H -328"
             style="fill:#000000;fill-opacity:1;fill-rule:nonzero;stroke:#00d639;stroke-width:54.652;stroke-linecap:round;stroke-linejoin:miter;stroke-miterlimit:10;stroke-dasharray:none;stroke-opacity:1"
             id="path589" /></g><g
           id="g591"
           transform="translate(633.4266,813.4725)"><path
             d="M 0,0 H -692.158"
             style="fill:#000000;fill-opacity:1;fill-rule:nonzero;stroke:#00d639;stroke-width:54.652;stroke-linecap:round;stroke-linejoin:miter;stroke-miterlimit:10;stroke-dasharray:none;stroke-opacity:1"
             id="path593" /></g><g
           id="g595"
           transform="translate(994.7348,649.5176)"><path
             d="M 0,0 H -627.277"
             style="fill:#000000;fill-opacity:1;fill-rule:nonzero;stroke:#00d639;stroke-width:54.652;stroke-linecap:round;stroke-linejoin:miter;stroke-miterlimit:10;stroke-dasharray:none;stroke-opacity:1"
             id="path597" /></g><g
           id="g599"
           transform="translate(1295.0531,649.5176)"><path
             d="M 0,0 H 655.82"
             style="fill:#000000;fill-opacity:1;fill-rule:nonzero;stroke:#00d639;stroke-width:54.652;stroke-linecap:round;stroke-linejoin:miter;stroke-miterlimit:10;stroke-dasharray:none;stroke-opacity:1"
             id="path601" /></g><g
           id="g603"
           transform="translate(1329.2305,485.5627)"><path
             d="M 0,0 H -859.167"
             style="fill:#000000;fill-opacity:1;fill-rule:nonzero;stroke:#00d639;stroke-width:54.652;stroke-linecap:round;stroke-linejoin:miter;stroke-miterlimit:10;stroke-dasharray:none;stroke-opacity:1"
             id="path605" /></g><g
           id="g607"
           transform="translate(1918.5165,485.5627)"><path
             d="M 0,0 H 1177.504"
             style="fill:#000000;fill-opacity:1;fill-rule:nonzero;stroke:#00d639;stroke-width:54.652;stroke-linecap:round;stroke-linejoin:miter;stroke-miterlimit:10;stroke-dasharray:none;stroke-opacity:1"
             id="path609" /></g><g
           id="g611"
           transform="translate(1766.6205,321.6077)"><path
             d="M 0,0 H -568.297"
             style="fill:#000000;fill-opacity:1;fill-rule:nonzero;stroke:#00d639;stroke-width:54.652;stroke-linecap:round;stroke-linejoin:miter;stroke-miterlimit:10;stroke-dasharray:none;stroke-opacity:1"
             id="path613" /></g><g
           id="g615"
           transform="translate(400.3293,321.6077)"><path
             d="M 0,0 H 327.91"
             style="fill:#000000;fill-opacity:1;fill-rule:nonzero;stroke:#00d639;stroke-width:54.652;stroke-linecap:round;stroke-linejoin:miter;stroke-miterlimit:10;stroke-dasharray:none;stroke-opacity:1"
             id="path617" /></g><g
           id="g619"
           transform="translate(1885.0323,321.6077)"><path
             d="M 0,0 H 327.91"
             style="fill:#000000;fill-opacity:1;fill-rule:nonzero;stroke:#00d639;stroke-width:54.652;stroke-linecap:round;stroke-linejoin:miter;stroke-miterlimit:10;stroke-dasharray:none;stroke-opacity:1"
             id="path621" /></g><g
           id="g623"
           transform="translate(961.3365,157.6528)"><path
             d="M 0,0 H 765.123"
             style="fill:#000000;fill-opacity:1;fill-rule:nonzero;stroke:#00d639;stroke-width:54.652;stroke-linecap:round;stroke-linejoin:miter;stroke-miterlimit:10;stroke-dasharray:none;stroke-opacity:1"
             id="path625" /></g><g
           id="g627"
           transform="translate(-453.2581,485.5627)"><path
             d="M 0,0 H 765.123"
             style="fill:#000000;fill-opacity:1;fill-rule:nonzero;stroke:#00d639;stroke-width:54.652;stroke-linecap:round;stroke-linejoin:miter;stroke-miterlimit:10;stroke-dasharray:none;stroke-opacity:1"
             id="path629" /></g><g
           id="g631"
           transform="translate(117.1984,157.6528)"><path
             d="M 0,0 H 516.228"
             style="fill:#000000;fill-opacity:1;fill-rule:nonzero;stroke:#00d639;stroke-width:54.652;stroke-linecap:round;stroke-linejoin:miter;stroke-miterlimit:10;stroke-dasharray:none;stroke-opacity:1"
             id="path633" /></g><g
           id="g635"
           transform="translate(2304.5784,157.6528)"><path
             d="M 0,0 H 974.448"
             style="fill:#000000;fill-opacity:1;fill-rule:nonzero;stroke:#00d639;stroke-width:54.652;stroke-linecap:round;stroke-linejoin:miter;stroke-miterlimit:10;stroke-dasharray:none;stroke-opacity:1"
             id="path637" /></g><g
           id="g639"
           transform="translate(2037.4374,977.4275)"><path
             d="M 0,0 H 939.662"
             style="fill:#000000;fill-opacity:1;fill-rule:nonzero;stroke:#00d639;stroke-width:54.652;stroke-linecap:round;stroke-linejoin:miter;stroke-miterlimit:10;stroke-dasharray:none;stroke-opacity:1"
             id="path641" /></g><g
           id="g643"
           transform="translate(627.8953,1141.3824)"><path
             d="M 0,0 H -621.074"
             style="fill:#000000;fill-opacity:1;fill-rule:nonzero;stroke:#00d639;stroke-width:54.652;stroke-linecap:round;stroke-linejoin:miter;stroke-miterlimit:10;stroke-dasharray:none;stroke-opacity:1"
             id="path645" /></g><g
           id="g647"
           transform="translate(620.2039,977.4275)"><path
             d="M 0,0 H 113.044"
             style="fill:#000000;fill-opacity:1;fill-rule:nonzero;stroke:#00d639;stroke-width:54.652;stroke-linecap:round;stroke-linejoin:miter;stroke-miterlimit:10;stroke-dasharray:none;stroke-opacity:1"
             id="path649" /></g><g
           id="g651"
           transform="translate(1492.7534,485.5627)"><path
             d="M 0,0 H 113.044"
             style="fill:#000000;fill-opacity:1;fill-rule:nonzero;stroke:#00d639;stroke-width:54.652;stroke-linecap:round;stroke-linejoin:miter;stroke-miterlimit:10;stroke-dasharray:none;stroke-opacity:1"
             id="path653" /></g><g
           id="g655"
           transform="translate(215.0671,977.4275)"><path
             d="M 0,0 H 71.234"
             style="fill:#000000;fill-opacity:1;fill-rule:nonzero;stroke:#00d639;stroke-width:54.652;stroke-linecap:round;stroke-linejoin:miter;stroke-miterlimit:10;stroke-dasharray:none;stroke-opacity:1"
             id="path657" /></g><g
           id="g659"
           transform="translate(2901.0042,1141.9119)"><path
             d="M 0,0 H -71.234"
             style="fill:#000000;fill-opacity:1;fill-rule:nonzero;stroke:#00d639;stroke-width:54.652;stroke-linecap:round;stroke-linejoin:miter;stroke-miterlimit:10;stroke-dasharray:none;stroke-opacity:1"
             id="path661" /></g><g
           id="g663"
           transform="translate(-70.6965,977.4275)"><path
             d="M 0,0 H 164.685"
             style="fill:#000000;fill-opacity:1;fill-rule:nonzero;stroke:#00d639;stroke-width:54.652;stroke-linecap:round;stroke-linejoin:miter;stroke-miterlimit:10;stroke-dasharray:none;stroke-opacity:1"
             id="path665" /></g><g
           id="g667"
           transform="translate(69.9026,649.5176)"><path
             d="M 0,0 H 164.685"
             style="fill:#000000;fill-opacity:1;fill-rule:nonzero;stroke:#00d639;stroke-width:54.652;stroke-linecap:round;stroke-linejoin:miter;stroke-miterlimit:10;stroke-dasharray:none;stroke-opacity:1"
             id="path669" /></g><g
           id="g671"
           transform="translate(2382.2793,813.4725)"><path
             d="M 0,0 H 383.268"
             style="fill:#000000;fill-opacity:1;fill-rule:nonzero;stroke:#00d639;stroke-width:54.652;stroke-linecap:round;stroke-linejoin:miter;stroke-miterlimit:10;stroke-dasharray:none;stroke-opacity:1"
             id="path673" /></g><g
           id="g675"
           transform="translate(2688.1797,649.5176)"><path
             d="M 0,0 H 111.959"
             style="fill:#000000;fill-opacity:1;fill-rule:nonzero;stroke:#00d639;stroke-width:54.652;stroke-linecap:round;stroke-linejoin:miter;stroke-miterlimit:10;stroke-dasharray:none;stroke-opacity:1"
             id="path677" /></g><g
           id="g679"
           transform="translate(-29.5027,321.6077)"><path
             d="M 0,0 H 106.022"
             style="fill:#000000;fill-opacity:1;fill-rule:nonzero;stroke:#00d639;stroke-width:54.652;stroke-linecap:round;stroke-linejoin:miter;stroke-miterlimit:10;stroke-dasharray:none;stroke-opacity:1"
             id="path681" /></g><g
           id="g683"
           transform="translate(2043.0469,157.6528)"><path
             d="M 0,0 H 106.022"
             style="fill:#000000;fill-opacity:1;fill-rule:nonzero;stroke:#00d639;stroke-width:54.652;stroke-linecap:round;stroke-linejoin:miter;stroke-miterlimit:10;stroke-dasharray:none;stroke-opacity:1"
             id="path685" /></g><g
           id="g687"
           transform="translate(2347.8416,321.6077)"><path
             d="M 0,0 H 963.857"
             style="fill:#000000;fill-opacity:1;fill-rule:nonzero;stroke:#00d639;stroke-width:54.652;stroke-linecap:round;stroke-linejoin:miter;stroke-miterlimit:10;stroke-dasharray:none;stroke-opacity:1"
             id="path689" /></g><g
           id="g691"
           transform="translate(2114.562,649.5176)"><path
             d="m 0,0 c 0,-15.092 -12.234,-27.326 -27.326,-27.326 -15.091,0 -27.326,12.234 -27.326,27.326 0,15.092 12.235,27.326 27.326,27.326 C -12.234,27.326 0,15.092 0,0"
             style="fill:#00d639;fill-opacity:1;fill-rule:nonzero;stroke:none"
             id="path693" /></g><g
           id="g695"
           transform="translate(764.5244,1141.3824)"><path
             d="M 0,0 C 0,15.092 12.234,27.326 27.326,27.326 42.417,27.326 54.652,15.092 54.652,0 54.652,-15.092 42.417,-27.326 27.326,-27.326 12.234,-27.326 0,-15.092 0,0"
             style="fill:#00d639;fill-opacity:1;fill-rule:nonzero;stroke:none"
             id="path697" /></g><g
           id="g699"
           transform="translate(1917.7203,1141.3824)"><path
             d="M 0,0 C 0,15.092 12.234,27.326 27.326,27.326 42.417,27.326 54.652,15.092 54.652,0 54.652,-15.092 42.417,-27.326 27.326,-27.326 12.234,-27.326 0,-15.092 0,0"
             style="fill:#00d639;fill-opacity:1;fill-rule:nonzero;stroke:none"
             id="path701" /></g><g
           id="g703"
           transform="translate(1518.2467,977.4275)"><path
             d="M 0,0 C 0,15.092 12.234,27.326 27.326,27.326 42.417,27.326 54.652,15.092 54.652,0 54.652,-15.092 42.417,-27.326 27.326,-27.326 12.234,-27.326 0,-15.092 0,0"
             style="fill:#00d639;fill-opacity:1;fill-rule:nonzero;stroke:none"
             id="path705" /></g><g
           id="g707"
           transform="translate(479.8654,977.4275)"><path
             d="m 0,0 c 0,-15.092 -12.234,-27.326 -27.326,-27.326 -15.091,0 -27.326,12.234 -27.326,27.326 0,15.092 12.235,27.326 27.326,27.326 C -12.234,27.326 0,15.092 0,0"
             style="fill:#00d639;fill-opacity:1;fill-rule:nonzero;stroke:none"
             id="path709" /></g><g
           id="g711"
           transform="translate(870.4305,958.1052)"><path
             d="m 0,0 c -10.671,10.671 -10.671,27.973 0,38.645 10.671,10.671 27.973,10.671 38.645,0 C 49.316,27.973 49.316,10.671 38.645,0 27.973,-10.671 10.671,-10.671 0,0"
             style="fill:#00d639;fill-opacity:1;fill-rule:nonzero;stroke:none"
             id="path713" /></g></g></g></g></svg>
