<?xml version="1.0" encoding="UTF-8" standalone="no"?>
<!-- Created with Inkscape (http://www.inkscape.org/) -->

<svg
   version="1.1"
   id="svg9"
   xml:space="preserve"
   width="210mm"
   height="297mm"
   viewBox="0 0 793.70078 1122.5197"
   sodipodi:docname="Sage_Adventure_20210713.svg"
   inkscape:version="1.1.2 (b8e25be833, 2022-02-05)"
   xmlns:inkscape="http://www.inkscape.org/namespaces/inkscape"
   xmlns:sodipodi="http://sodipodi.sourceforge.net/DTD/sodipodi-0.dtd"
   xmlns="http://www.w3.org/2000/svg"
   xmlns:svg="http://www.w3.org/2000/svg"><defs
     id="defs13"><clipPath
       clipPathUnits="userSpaceOnUse"
       id="clipPath25"><path
         d="M 0,2000 H 2000 V 0 H 0 Z"
         id="path23" /></clipPath></defs><sodipodi:namedview
     id="namedview11"
     pagecolor="#ffffff"
     bordercolor="#666666"
     borderopacity="1.0"
     inkscape:pageshadow="2"
     inkscape:pageopacity="0.0"
     inkscape:pagecheckerboard="0"
     showgrid="false"
     inkscape:zoom="0.61942552"
     inkscape:cx="212.29348"
     inkscape:cy="364.8542"
     inkscape:window-width="2560"
     inkscape:window-height="1377"
     inkscape:window-x="-8"
     inkscape:window-y="-8"
     inkscape:window-maximized="1"
     inkscape:current-layer="g15"
     units="mm"
     width="21cm"
     inkscape:document-units="mm" /><g
     id="g15"
     inkscape:groupmode="layer"
     inkscape:label="Sage_Adventure_20210713"
     transform="matrix(1.3333333,0,0,-1.3333333,0,2666.6667)"><path
       d="m 0,1574.8032 h 595.27561 v 425.1969 H 0 Z"
       style="fill:#000000;fill-opacity:1;fill-rule:nonzero;stroke:none;stroke-width:0.25155"
       id="path17" /><g
       id="g19"
       transform="matrix(0.37957607,0,0,0.37957607,-89.316493,1480.5513)"><g
         id="g21"
         clip-path="url(#clipPath25)"><g
           id="g27"
           transform="translate(1743.7125,1339.7062)"><path
             d="m 0,0 c -111.734,0 -93.776,219.477 -245.415,219.477 -151.639,0 -265.368,-141.662 -331.211,-141.662 -65.843,0 -57.862,75.819 -186.556,75.819 -128.693,0 -402.042,-217.482 -485.842,-217.482 -83.8,0 -121.71,49.881 -181.568,49.881 -24.275,0 -50.191,-10.501 -77.814,-22.986 v -1039.158 l 1568.263,-14.7 V 6.866 C 44.109,2.68 24.472,0 0,0"
             style="fill:#006700;fill-opacity:1;fill-rule:nonzero;stroke:none"
             id="path29" /></g><g
           id="g31"
           transform="translate(1521.5752,914.7187)"><path
             d="m 0,0 c -113.729,0 -111.734,312.589 -348.503,312.589 -98.432,0 -173.072,-95.107 -323.23,-95.107 -97.767,0 -89.121,95.107 -236.769,95.107 -137.749,0 -287.072,-237.333 -377.767,-269.16 V -666.412 H 281.995 V 245.034 C 168.361,201.211 101.344,0 0,0"
             style="fill:#000000;fill-opacity:1;fill-rule:nonzero;stroke:none"
             id="path33" /></g><g
           id="g35"
           transform="translate(1667.8932,613.4365)"><path
             d="m 0,0 c -71.829,0 -80.475,140.332 -128.361,140.332 -47.886,0 -39.905,-29.263 -111.069,-28.598 -89.782,0.839 -41.9,371.116 -257.386,371.116 -215.487,0 -353.711,-231.449 -426.983,-231.449 -73.272,0 -49.549,20.618 -92.446,20.618 -67.839,0 -121.045,-134.347 -170.927,-134.347 -49.881,0 -89.786,105.748 -195.534,105.748 -19.181,0 -35.464,-3.491 -49.881,-9.187 V -365.13 H 135.677 V 62.1 C 84.58,36.706 46.984,0 0,0"
             style="fill:#00d719;fill-opacity:1;fill-rule:nonzero;stroke:none"
             id="path37" /></g><g
           id="g39"
           transform="translate(1683.8552,431.8691)"><path
             d="m 0,0 c -47.886,0 -57.862,39.905 -97.767,39.905 -39.905,0 -79.81,173.586 -133.682,173.586 -53.871,0 -35.914,-37.909 -145.653,-37.909 -109.738,0 -47.886,307.268 -337.196,307.268 -207.506,0 -432.969,-399.05 -612.541,-399.05 -50.926,0 -89.489,9.794 -121.71,23.82 V -183.563 H 119.715 v 72.738 C 50.723,-93.093 43.325,0 0,0"
             style="fill:#ffffff;fill-opacity:1;fill-rule:nonzero;stroke:none"
             id="path41" /></g><g
           id="g43"
           transform="translate(811.8108,696.0542)"><path
             d="M 0,0 20.671,-138.436"
             style="fill:none;stroke:#000000;stroke-width:3.147;stroke-linecap:round;stroke-linejoin:round;stroke-miterlimit:10;stroke-dasharray:none;stroke-opacity:1"
             id="path45" /></g><g
           id="g47"
           transform="translate(778.9161,651.9897)"><path
             d="m 0,0 c 13.507,0 24.79,-5.677 26.587,-19.153 1.714,-12.85 2.689,-55.315 2.689,-55.315"
             style="fill:none;stroke:#000000;stroke-width:19;stroke-linecap:round;stroke-linejoin:miter;stroke-miterlimit:10;stroke-dasharray:none;stroke-opacity:1"
             id="path49" /></g><g
           id="g51"
           transform="translate(1803.5699,288.0098)"><path
             d="m 0,0 c -72.662,17.52 -112.742,89.988 -163.61,89.988 -57.862,0 -63.848,-5.986 -103.753,-5.986 -39.905,0 -125.701,129.691 -241.425,129.691 -115.724,0 -153.634,-51.876 -239.429,-51.876 -85.796,0 -103.753,135.676 -293.302,135.676 -189.548,0 -391.068,-229.453 -526.745,-229.453 V -39.703 H 0 Z"
             style="fill:#00b10e;fill-opacity:1;fill-rule:nonzero;stroke:none"
             id="path53" /></g><g
           id="g55"
           transform="translate(776.3729,688.347)"><path
             d="m 0,0 v 0 c -1.178,-0.315 -2.389,0.385 -2.703,1.563 l -1.914,7.168 c -0.314,1.177 0.385,2.387 1.563,2.702 1.178,0.315 2.388,-0.385 2.703,-1.563 L 1.563,2.702 C 1.877,1.525 1.178,0.315 0,0"
             style="fill:#000000;fill-opacity:1;fill-rule:nonzero;stroke:none"
             id="path57" /></g><g
           id="g59"
           transform="translate(777.1446,683.7955)"><path
             d="M 0,0 23.398,-15.407 36.229,-2.299"
             style="fill:none;stroke:#000000;stroke-width:14.162;stroke-linecap:round;stroke-linejoin:round;stroke-miterlimit:10;stroke-dasharray:none;stroke-opacity:1"
             id="path61" /></g><g
           id="g63"
           transform="translate(769.0204,694.2796)"><path
             d="M 0,0 10.683,3.195"
             style="fill:none;stroke:#000000;stroke-width:1.238;stroke-linecap:round;stroke-linejoin:round;stroke-miterlimit:10;stroke-dasharray:none;stroke-opacity:1"
             id="path65" /></g><g
           id="g67"
           transform="translate(750.7809,572.2352)"><path
             d="M 0,0 C 16.266,28.074 28.942,42.31 25.459,109.261"
             style="fill:none;stroke:#000000;stroke-width:19;stroke-linecap:round;stroke-linejoin:miter;stroke-miterlimit:10;stroke-dasharray:none;stroke-opacity:1"
             id="path69" /></g></g></g></g></svg>
