<?xml version="1.0" encoding="utf-8"?>
<!-- Generator: Adobe Illustrator 25.4.1, SVG Export Plug-In . SVG Version: 6.00 Build 0)  -->
<svg version="1.1" id="Layer_1" xmlns="http://www.w3.org/2000/svg" xmlns:xlink="http://www.w3.org/1999/xlink" x="0px" y="0px"
	 viewBox="0 0 30 30" style="enable-background:new 0 0 30 30;" xml:space="preserve">
<style type="text/css">
	.st0{fill:#FFFFFF;}
</style>
<g id="addons">
</g>
<g id="app-active_x0D_">
</g>
<g id="processing_x0D_">
</g>
<g id="calculator_x0D_">
</g>
<g id="cloud-service_x0D_">
</g>
<g id="financials_x0D_">
</g>
<g id="globe">
	<path class="st0" d="M26,30H8c-0.6,0-1-0.5-1-1s0.4-1,1-1h18c1.1,0,2-0.9,2-2V4c0-1.1-0.9-2-2-2H4C2.9,2,2,2.9,2,4v22
		c0,1.1,0.9,2,2,2c0.6,0,1,0.5,1,1s-0.4,1-1,1c-2.2,0-4-1.8-4-4V4c0-2.2,1.8-4,4-4h22c2.2,0,4,1.8,4,4v22C30,28.2,28.2,30,26,30z
		 M15,25L15,25L15,25L15,25c-0.7,0-1.4-0.1-2.1-0.2c-0.7-0.1-1.4-0.4-2-0.6c-0.6-0.3-1.2-0.6-1.8-1c-0.6-0.4-1.1-0.9-1.6-1.4
		c-0.5-0.5-0.9-1.1-1.2-1.7s-0.6-1.2-0.8-1.9c-0.2-0.7-0.4-1.4-0.4-2C5,15.7,5,15.4,5,15c0,0,0,0,0,0s0,0,0,0c0-0.3,0-0.7,0.1-1
		c0.1-0.7,0.2-1.4,0.4-2C5.7,11.2,6,10.6,6.3,10c0.3-0.6,0.8-1.2,1.2-1.7c0.5-0.5,1-1,1.5-1.4c0.6-0.4,1.2-0.8,1.8-1
		c0.6-0.3,1.3-0.5,2-0.7C13.6,5.1,14.3,5,15,5l0,0l0,0l0,0c0.7,0,1.4,0.1,2.1,0.2c0.7,0.1,1.4,0.4,2,0.7c0.6,0.3,1.2,0.6,1.8,1.1
		c0.6,0.4,1.1,0.9,1.5,1.4c0.5,0.5,0.9,1.1,1.2,1.7s0.6,1.2,0.9,1.9c0.2,0.7,0.4,1.4,0.4,2.1c0.1,0.7,0.1,1.4,0,2.1
		c-0.1,0.7-0.2,1.4-0.4,2c-0.2,0.7-0.5,1.3-0.9,1.9s-0.8,1.2-1.2,1.7c-0.4,0.4-1,0.4-1.4,0.1s-0.4-1-0.1-1.4c0.4-0.4,0.7-0.9,1-1.4
		c0.3-0.5,0.5-1,0.7-1.5c0.2-0.5,0.3-1,0.3-1.5h-4C18.8,20.5,17.6,25,15,25L15,25z M15,23L15,23c0.5,0,1.8-2.4,2-7h-4
		C13.2,20.6,14.5,23,15,23z M7.1,16c0.1,0.5,0.2,1,0.3,1.5C7.6,18,7.8,18.5,8.1,19s0.6,0.9,1,1.4s0.8,0.8,1.2,1.1s0.9,0.6,1.4,0.8
		c0.2,0.1,0.3,0.1,0.5,0.2c-0.7-1.7-1.1-4.1-1.2-6.5H7.1z M19,14h4c-0.1-0.5-0.2-1-0.3-1.5c-0.2-0.5-0.4-1-0.7-1.5
		c-0.3-0.5-0.6-0.9-1-1.4s-0.8-0.8-1.2-1.1c-0.5-0.3-0.9-0.6-1.5-0.8c-0.2-0.1-0.3-0.1-0.5-0.2C18.5,9.2,18.9,11.6,19,14z M13,14h4
		c-0.2-4.6-1.5-7-2-7l0,0C14.5,7,13.2,9.4,13,14z M7.1,14h4c0.1-2.4,0.5-4.8,1.2-6.5c-0.2,0.1-0.3,0.1-0.5,0.2
		c-0.5,0.2-1,0.5-1.4,0.8S9.4,9.2,9.1,9.6c-0.4,0.4-0.7,0.9-1,1.4c-0.3,0.5-0.5,1-0.7,1.5C7.2,13,7.1,13.5,7.1,14z"/>
</g>
<g id="incline">
</g>
<g id="lock">
</g>
<g id="page">
</g>
<g id="people-network">
</g>
<g id="savings">
</g>
<g id="smartphone">
</g>
<g id="support">
</g>
<g id="tab">
</g>
</svg>
