<?xml version="1.0" encoding="utf-8"?>
<!-- Generator: Adobe Illustrator 25.4.1, SVG Export Plug-In . SVG Version: 6.00 Build 0)  -->
<svg version="1.1" id="Layer_1" xmlns="http://www.w3.org/2000/svg" xmlns:xlink="http://www.w3.org/1999/xlink" x="0px" y="0px"
	 viewBox="0 0 90 90" style="enable-background:new 0 0 90 90;" xml:space="preserve">
<g id="surface1">
	<path d="M78,90H12C5.4,90,0,84.6,0,78V12C0,5.4,5.4,0,12,0h54c1.7,0,3,1.3,3,3s-1.3,3-3,3H12c-3.3,0-6,2.7-6,6v66c0,3.3,2.7,6,6,6
		h66c3.3,0,6-2.7,6-6V12c0-3.3-2.7-6-6-6c-1.7,0-3-1.3-3-3s1.3-3,3-3c6.6,0,12,5.4,12,12v66C90,84.6,84.6,90,78,90z M72,78H36
		c-1.7,0-3-1.3-3-3s1.3-3,3-3h36c1.7,0,3,1.3,3,3S73.7,78,72,78z M24,78h-6c-1.7,0-3-1.3-3-3s1.3-3,3-3h6c1.7,0,3,1.3,3,3
		S25.7,78,24,78z M72,69H36c-1.7,0-3-1.3-3-3s1.3-3,3-3h36c1.7,0,3,1.3,3,3S73.7,69,72,69z M24,69h-6c-1.7,0-3-1.3-3-3s1.3-3,3-3h6
		c1.7,0,3,1.3,3,3S25.7,69,24,69z M36,57L36,57c-1.3,0-2.4-0.8-2.8-1.9C33,54.7,33,54.4,33,54c0-0.3,0-0.5,0.1-0.8l3-12
		c0.1-0.5,0.4-1,0.8-1.4l12-12c1.2-1.2,3.1-1.2,4.2,0c1.2,1.2,1.2,3.1,0,4.2L41.7,43.5l-1.6,6.4l6.4-1.6L72,22.7l-4.5-4.6l-8.3,8.1
		c-1.2,1.2-3.1,1.2-4.2,0c-1.2-1.2-1.2-3.1,0-4.2l8.3-8.2c2.4-2.3,6.3-2.2,8.6,0.2l4.4,4.5c2.4,2.4,2.4,6.2,0.1,8.6L50.1,53.1
		c-0.4,0.4-0.9,0.7-1.4,0.8l-12,3C36.5,57,36.2,57,36,57z"/>
</g>
</svg>
