<?xml version="1.0" encoding="utf-8"?>
<!-- Generator: Adobe Illustrator 25.4.1, SVG Export Plug-In . SVG Version: 6.00 Build 0)  -->
<svg version="1.1" id="Layer_1" xmlns="http://www.w3.org/2000/svg" xmlns:xlink="http://www.w3.org/1999/xlink" x="0px" y="0px"
	 viewBox="0 0 90 90" style="enable-background:new 0 0 90 90;" xml:space="preserve">
<g id="surface1">
	<path d="M78,90H27c-5,0-9-4-9-9V24c0-5,4-9,9-9h36c1.7,0,3,1.3,3,3v9h3c1.7,0,3,1.3,3,3v45c0,1.7-1.3,3-3,3s-3-1.3-3-3V33H27
		c-1,0-2-0.2-3-0.5V81c0,1.7,1.3,3,3,3h51c3.3,0,6-2.7,6-6V12c0-3.3-2.7-6-6-6H12c-3.3,0-6,2.7-6,6v66c0,3.3,2.7,6,6,6
		c1.7,0,3,1.3,3,3s-1.3,3-3,3C5.4,90,0,84.6,0,78V12C0,5.4,5.4,0,12,0h66c6.6,0,12,5.4,12,12v66C90,84.6,84.6,90,78,90z M27,27h33
		v-6H27c-1.7,0-3,1.3-3,3S25.3,27,27,27z M57,48H33c-1.7,0-3-1.3-3-3s1.3-3,3-3h24c1.7,0,3,1.3,3,3S58.7,48,57,48z"/>
</g>
</svg>
